<svg xmlns="http://www.w3.org/2000/svg" xmlns:xlink="http://www.w3.org/1999/xlink" width="64" zoomAndPan="magnify" viewBox="0 0 48 48" height="64" preserveAspectRatio="xMidYMid meet" version="1.0"><defs><clipPath id="8623d158a4"><path d="M 38 21 L 45.769531 21 L 45.769531 29.222656 L 38 29.222656 Z M 38 21 " clip-rule="nonzero"/></clipPath><clipPath id="620a26ff9d"><path d="M 2.421875 17.46875 L 37 17.46875 L 37 29.222656 L 2.421875 29.222656 Z M 2.421875 17.46875 " clip-rule="nonzero"/></clipPath><clipPath id="dcf1cb2aed"><path d="M 11 21 L 34 21 L 34 29.222656 L 11 29.222656 Z M 11 21 " clip-rule="nonzero"/></clipPath></defs><g clip-path="url(#8623d158a4)"><path fill="#83cd29" d="M 42.082031 21.628906 C 41.976562 21.628906 41.875 21.648438 41.785156 21.699219 L 38.945312 23.289062 C 38.761719 23.390625 38.648438 23.585938 38.648438 23.792969 L 38.648438 26.964844 C 38.648438 27.171875 38.761719 27.367188 38.945312 27.46875 L 39.6875 27.882812 C 40.046875 28.054688 40.179688 28.050781 40.34375 28.050781 C 40.878906 28.050781 41.183594 27.738281 41.183594 27.191406 L 41.183594 24.0625 C 41.183594 24.015625 41.144531 23.984375 41.097656 23.984375 L 40.742188 23.984375 C 40.699219 23.984375 40.660156 24.019531 40.660156 24.0625 L 40.660156 27.195312 C 40.660156 27.4375 40.398438 27.679688 39.976562 27.476562 L 39.207031 27.035156 C 39.179688 27.023438 39.15625 26.996094 39.15625 26.964844 L 39.15625 23.792969 C 39.15625 23.761719 39.179688 23.730469 39.207031 23.71875 L 42.042969 22.132812 C 42.066406 22.117188 42.097656 22.117188 42.125 22.132812 L 44.960938 23.71875 C 44.988281 23.734375 45.007812 23.761719 45.007812 23.792969 L 45.007812 26.964844 C 45.007812 26.996094 44.992188 27.027344 44.96875 27.042969 L 42.125 28.625 C 42.101562 28.640625 42.066406 28.640625 42.042969 28.625 L 41.3125 28.207031 C 41.289062 28.195312 41.261719 28.195312 41.238281 28.207031 C 41.039062 28.316406 41 28.328125 40.8125 28.394531 C 40.765625 28.410156 40.695312 28.433594 40.835938 28.511719 L 41.789062 29.054688 C 41.878906 29.105469 41.980469 29.128906 42.082031 29.128906 C 42.1875 29.128906 42.289062 29.105469 42.378906 29.054688 L 45.21875 27.46875 C 45.402344 27.367188 45.515625 27.171875 45.515625 26.96875 L 45.515625 23.792969 C 45.515625 23.585938 45.402344 23.394531 45.21875 23.289062 L 42.378906 21.699219 C 42.289062 21.652344 42.1875 21.632812 42.082031 21.632812 Z M 42.84375 23.898438 C 42.035156 23.898438 41.550781 24.230469 41.550781 24.785156 C 41.550781 25.386719 42.03125 25.554688 42.804688 25.628906 C 43.734375 25.714844 43.808594 25.847656 43.808594 26.023438 C 43.808594 26.332031 43.554688 26.464844 42.957031 26.464844 C 42.207031 26.464844 42.042969 26.28125 41.984375 25.917969 C 41.980469 25.878906 41.949219 25.847656 41.90625 25.847656 L 41.539062 25.847656 C 41.484375 25.851562 41.457031 25.878906 41.453125 25.929688 C 41.453125 26.394531 41.714844 26.941406 42.957031 26.941406 C 43.855469 26.941406 44.375 26.601562 44.375 26 C 44.375 25.40625 43.957031 25.246094 43.082031 25.136719 C 42.203125 25.023438 42.117188 24.96875 42.117188 24.765625 C 42.117188 24.601562 42.1875 24.382812 42.84375 24.382812 C 43.425781 24.382812 43.640625 24.503906 43.730469 24.882812 C 43.738281 24.921875 43.769531 24.949219 43.808594 24.949219 L 44.175781 24.949219 C 44.199219 24.949219 44.21875 24.9375 44.234375 24.921875 C 44.25 24.902344 44.261719 24.882812 44.261719 24.863281 C 44.203125 24.207031 43.753906 23.898438 42.84375 23.898438 Z M 42.84375 23.898438 " fill-opacity="1" fill-rule="nonzero"/></g><g clip-path="url(#620a26ff9d)"><path fill="#404137" d="M 25.378906 17.46875 C 25.347656 17.46875 25.316406 17.476562 25.289062 17.492188 C 25.230469 17.527344 25.199219 17.578125 25.199219 17.644531 L 25.199219 22.117188 C 25.199219 22.160156 25.175781 22.199219 25.136719 22.222656 C 25.097656 22.246094 25.054688 22.246094 25.011719 22.222656 L 24.257812 21.800781 C 24.136719 21.730469 24.015625 21.730469 23.894531 21.800781 L 20.886719 23.484375 C 20.773438 23.546875 20.703125 23.667969 20.703125 23.792969 L 20.703125 27.160156 C 20.703125 27.296875 20.765625 27.394531 20.886719 27.464844 L 23.894531 29.148438 C 24.015625 29.214844 24.136719 29.214844 24.257812 29.148438 L 27.269531 27.464844 C 27.386719 27.394531 27.449219 27.296875 27.449219 27.160156 L 27.449219 18.765625 C 27.449219 18.636719 27.375 18.519531 27.261719 18.457031 L 25.46875 17.484375 C 25.441406 17.46875 25.410156 17.46875 25.378906 17.46875 Z M 6.015625 21.671875 C 5.957031 21.671875 5.90625 21.683594 5.851562 21.710938 L 2.84375 23.394531 C 2.722656 23.464844 2.664062 23.5625 2.664062 23.699219 L 2.667969 28.21875 C 2.667969 28.28125 2.703125 28.339844 2.757812 28.371094 C 2.816406 28.402344 2.882812 28.402344 2.941406 28.371094 L 4.726562 27.375 C 4.839844 27.3125 4.914062 27.199219 4.914062 27.074219 L 4.914062 24.960938 C 4.914062 24.835938 4.980469 24.71875 5.09375 24.65625 L 5.855469 24.230469 C 5.910156 24.199219 5.96875 24.183594 6.035156 24.183594 C 6.097656 24.183594 6.160156 24.199219 6.214844 24.230469 L 6.976562 24.65625 C 7.089844 24.71875 7.15625 24.835938 7.15625 24.960938 L 7.15625 27.070312 C 7.15625 27.199219 7.230469 27.3125 7.34375 27.375 L 9.128906 28.371094 C 9.183594 28.402344 9.253906 28.402344 9.308594 28.371094 C 9.363281 28.339844 9.398438 28.28125 9.398438 28.21875 L 9.40625 23.699219 C 9.40625 23.5625 9.347656 23.460938 9.226562 23.394531 L 6.214844 21.710938 C 6.164062 21.683594 6.109375 21.671875 6.050781 21.671875 Z M 33.0625 21.710938 C 33 21.710938 32.9375 21.726562 32.882812 21.757812 L 29.875 23.441406 C 29.761719 23.503906 29.691406 23.621094 29.691406 23.746094 L 29.691406 27.113281 C 29.691406 27.238281 29.765625 27.355469 29.878906 27.417969 L 32.863281 29.066406 C 32.976562 29.128906 33.109375 29.132812 33.222656 29.070312 L 35.03125 28.09375 C 35.085938 28.066406 35.125 28.007812 35.125 27.945312 C 35.128906 27.878906 35.09375 27.824219 35.035156 27.792969 L 32.007812 26.109375 C 31.953125 26.078125 31.910156 26.011719 31.910156 25.949219 L 31.910156 24.898438 C 31.910156 24.835938 31.953125 24.777344 32.007812 24.746094 L 32.949219 24.21875 C 33.003906 24.1875 33.074219 24.1875 33.128906 24.21875 L 34.074219 24.746094 C 34.132812 24.78125 34.164062 24.828125 34.164062 24.898438 L 34.164062 25.726562 C 34.164062 25.796875 34.195312 25.847656 34.253906 25.878906 C 34.3125 25.910156 34.378906 25.910156 34.433594 25.878906 L 36.238281 24.863281 C 36.351562 24.800781 36.417969 24.683594 36.417969 24.558594 L 36.417969 23.746094 C 36.417969 23.609375 36.359375 23.511719 36.238281 23.441406 L 33.246094 21.757812 C 33.191406 21.726562 33.128906 21.710938 33.066406 21.710938 Z M 24.0625 24.226562 C 24.082031 24.226562 24.097656 24.230469 24.113281 24.238281 L 25.144531 24.816406 C 25.171875 24.832031 25.191406 24.859375 25.191406 24.890625 L 25.191406 26.050781 C 25.191406 26.082031 25.171875 26.109375 25.144531 26.125 L 24.113281 26.703125 C 24.085938 26.71875 24.050781 26.71875 24.023438 26.703125 L 22.992188 26.125 C 22.960938 26.109375 22.941406 26.082031 22.941406 26.050781 L 22.941406 24.890625 C 22.941406 24.859375 22.960938 24.832031 22.992188 24.816406 L 24.023438 24.238281 C 24.035156 24.230469 24.046875 24.226562 24.0625 24.226562 Z M 24.0625 24.226562 " fill-opacity="1" fill-rule="nonzero"/></g><g clip-path="url(#dcf1cb2aed)"><path fill="#83cd29" d="M 15.058594 21.695312 C 14.992188 21.695312 14.933594 21.710938 14.878906 21.742188 L 11.867188 23.417969 C 11.753906 23.480469 11.6875 23.601562 11.6875 23.730469 L 11.6875 27.09375 C 11.6875 27.230469 11.746094 27.332031 11.867188 27.398438 L 14.878906 29.082031 C 14.996094 29.152344 15.117188 29.152344 15.238281 29.082031 L 18.25 27.398438 C 18.371094 27.332031 18.429688 27.230469 18.429688 27.09375 L 18.429688 23.730469 C 18.429688 23.601562 18.363281 23.480469 18.25 23.417969 L 15.238281 21.742188 C 15.183594 21.710938 15.121094 21.695312 15.058594 21.695312 Z M 33.058594 24.699219 C 33.046875 24.699219 33.03125 24.699219 33.023438 24.703125 L 32.441406 25.03125 C 32.417969 25.042969 32.40625 25.0625 32.40625 25.089844 L 32.40625 25.734375 C 32.40625 25.757812 32.421875 25.78125 32.441406 25.792969 L 33.023438 26.113281 C 33.042969 26.125 33.066406 26.125 33.089844 26.113281 L 33.667969 25.792969 C 33.6875 25.78125 33.703125 25.757812 33.703125 25.734375 L 33.703125 25.089844 C 33.703125 25.066406 33.6875 25.042969 33.667969 25.03125 L 33.089844 24.703125 C 33.078125 24.699219 33.070312 24.699219 33.058594 24.699219 Z M 33.058594 24.699219 " fill-opacity="1" fill-rule="nonzero"/></g></svg>