<svg xmlns="http://www.w3.org/2000/svg" xmlns:xlink="http://www.w3.org/1999/xlink" width="64" zoomAndPan="magnify" viewBox="0 0 48 48" height="64" preserveAspectRatio="xMidYMid meet" version="1.0"><defs><clipPath id="4060938420"><path d="M 3.773438 17 L 23 17 L 23 30 L 3.773438 30 Z M 3.773438 17 " clip-rule="nonzero"/></clipPath><clipPath id="5b601d1b6e"><path d="M 3.773438 16.449219 L 20 16.449219 L 20 30.410156 L 3.773438 30.410156 Z M 3.773438 16.449219 " clip-rule="nonzero"/></clipPath></defs><path fill="#00d8ff" d="M 12.898438 23.417969 C 12.898438 23.59375 12.863281 23.765625 12.796875 23.929688 C 12.726562 24.09375 12.628906 24.238281 12.5 24.363281 C 12.375 24.492188 12.226562 24.585938 12.0625 24.65625 C 11.894531 24.722656 11.722656 24.757812 11.542969 24.757812 C 11.363281 24.757812 11.191406 24.722656 11.023438 24.65625 C 10.859375 24.585938 10.710938 24.492188 10.585938 24.363281 C 10.457031 24.238281 10.359375 24.09375 10.292969 23.929688 C 10.222656 23.765625 10.1875 23.59375 10.1875 23.417969 C 10.1875 23.238281 10.222656 23.070312 10.292969 22.90625 C 10.359375 22.738281 10.457031 22.59375 10.585938 22.46875 C 10.710938 22.34375 10.859375 22.246094 11.023438 22.179688 C 11.191406 22.109375 11.363281 22.078125 11.542969 22.078125 C 11.722656 22.078125 11.894531 22.109375 12.0625 22.179688 C 12.226562 22.246094 12.375 22.34375 12.5 22.46875 C 12.628906 22.59375 12.726562 22.738281 12.796875 22.90625 C 12.863281 23.070312 12.898438 23.238281 12.898438 23.417969 Z M 12.898438 23.417969 " fill-opacity="1" fill-rule="nonzero"/><g clip-path="url(#4060938420)"><path stroke-linecap="butt" transform="matrix(0.0269998, 0, 0, 0.0267153, 4.266306, 17.068849)" fill="none" stroke-linejoin="miter" d="M 269.507807 135.59884 C 336.927233 135.59884 399.427646 145.249225 446.592309 161.479419 C 503.450323 181.072625 538.462128 210.754871 538.462128 237.658975 C 538.462128 265.586606 501.424847 297.169685 440.371203 317.347763 C 394.219278 332.700649 333.454988 340.596419 269.507807 340.596419 C 203.96918 340.596419 141.902798 333.139303 95.172166 317.201545 C 36.143999 297.023467 0.553486 265.147952 0.553486 237.658975 C 0.553486 211.047307 33.973845 181.511279 89.963798 162.06429 C 137.417815 145.541661 201.509673 135.59884 269.507807 135.59884 Z M 269.507807 135.59884 " stroke="#00d8ff" stroke-width="24" stroke-opacity="1" stroke-miterlimit="4"/></g><g clip-path="url(#5b601d1b6e)"><path stroke-linecap="butt" transform="matrix(0.0269998, 0, 0, 0.0267153, 4.266306, 17.068849)" fill="none" stroke-linejoin="miter" d="M 180.676202 186.921344 C 214.385916 128.580378 254.027381 79.158708 291.64337 46.405885 C 337.07191 6.927036 380.185621 -8.42585 403.478599 4.879984 C 427.639638 18.916908 436.464927 66.730181 423.444008 129.750121 C 413.750657 177.417176 390.313002 234.003526 358.339412 289.273915 C 325.642437 346.152701 288.026448 396.159243 250.989166 428.61963 C 203.96918 469.706876 158.54064 484.47489 134.813631 470.87662 C 111.66533 457.570786 102.840041 413.851616 113.98016 355.656868 C 123.239481 306.381416 146.821812 245.847181 180.676202 186.921344 Z M 180.676202 186.921344 " stroke="#00d8ff" stroke-width="24" stroke-opacity="1" stroke-miterlimit="4"/><path stroke-linecap="butt" transform="matrix(0.0269998, 0, 0, 0.0267153, 4.266306, 17.068849)" fill="none" stroke-linejoin="miter" d="M 180.820879 289.420133 C 147.111166 231.225385 124.107542 172.15333 114.558868 123.170313 C 102.984717 64.244476 111.086623 19.063126 134.379601 5.611074 C 158.54064 -8.42585 204.403211 7.950562 252.580612 50.646206 C 288.894509 82.814157 326.221144 131.504737 358.194735 186.775126 C 391.036387 243.507694 415.631456 300.971352 425.324807 349.369496 C 437.332989 410.634821 427.639638 457.27835 403.767952 471.022838 C 380.764328 484.47489 338.518679 470.291748 293.524169 431.543989 C 255.618827 398.937384 214.964623 348.34597 180.820879 289.420133 Z M 180.820879 289.420133 " stroke="#00d8ff" stroke-width="24" stroke-opacity="1" stroke-miterlimit="4"/></g><path fill="#00d8ff" d="M 26.578125 26.839844 L 24.917969 24.359375 C 25.757812 24.285156 26.515625 23.683594 26.515625 22.585938 C 26.515625 21.46875 25.710938 20.75 24.585938 20.75 L 22.117188 20.75 L 22.117188 26.835938 L 22.882812 26.835938 L 22.882812 24.417969 L 24.109375 24.417969 L 25.675781 26.835938 Z M 24.496094 23.757812 L 22.882812 23.757812 L 22.882812 21.429688 L 24.496094 21.429688 C 25.222656 21.429688 25.722656 21.90625 25.722656 22.589844 C 25.722656 23.273438 25.222656 23.757812 24.496094 23.757812 Z M 29.429688 26.949219 C 30.15625 26.949219 30.753906 26.714844 31.199219 26.277344 L 30.867188 25.828125 C 30.515625 26.183594 30 26.386719 29.492188 26.386719 C 28.535156 26.386719 27.945312 25.691406 27.886719 24.863281 L 31.492188 24.863281 L 31.492188 24.6875 C 31.492188 23.367188 30.699219 22.324219 29.355469 22.324219 C 28.082031 22.324219 27.160156 23.355469 27.160156 24.632812 C 27.160156 26.011719 28.109375 26.945312 29.425781 26.945312 Z M 30.8125 24.359375 L 27.886719 24.359375 C 27.925781 23.683594 28.394531 22.890625 29.34375 22.890625 C 30.359375 22.890625 30.800781 23.703125 30.8125 24.359375 Z M 36.085938 26.839844 L 36.085938 23.8125 C 36.085938 22.746094 35.300781 22.324219 34.363281 22.324219 C 33.632812 22.324219 33.0625 22.5625 32.582031 23.054688 L 32.90625 23.527344 C 33.300781 23.109375 33.734375 22.917969 34.269531 22.917969 C 34.914062 22.917969 35.394531 23.253906 35.394531 23.847656 L 35.394531 24.640625 C 35.035156 24.230469 34.527344 24.039062 33.917969 24.039062 C 33.164062 24.039062 32.359375 24.503906 32.359375 25.492188 C 32.359375 26.449219 33.164062 26.949219 33.917969 26.949219 C 34.519531 26.949219 35.027344 26.742188 35.394531 26.339844 L 35.394531 26.839844 Z M 34.167969 26.457031 C 33.523438 26.457031 33.070312 26.058594 33.070312 25.5 C 33.070312 24.933594 33.523438 24.53125 34.167969 24.53125 C 34.65625 24.53125 35.128906 24.714844 35.394531 25.082031 L 35.394531 25.910156 C 35.128906 26.273438 34.65625 26.457031 34.167969 26.457031 Z M 39.429688 26.949219 C 40.242188 26.949219 40.71875 26.621094 41.0625 26.183594 L 40.601562 25.765625 C 40.304688 26.15625 39.929688 26.339844 39.472656 26.339844 C 38.519531 26.339844 37.929688 25.609375 37.929688 24.632812 C 37.929688 23.65625 38.519531 22.9375 39.472656 22.9375 C 39.933594 22.9375 40.308594 23.109375 40.601562 23.511719 L 41.0625 23.089844 C 40.722656 22.652344 40.242188 22.324219 39.429688 22.324219 C 38.101562 22.324219 37.207031 23.328125 37.207031 24.632812 C 37.207031 25.949219 38.101562 26.949219 39.429688 26.949219 Z M 43.15625 26.949219 C 43.5625 26.949219 43.808594 26.832031 43.984375 26.667969 L 43.78125 26.15625 C 43.691406 26.257812 43.511719 26.339844 43.3125 26.339844 C 43.007812 26.339844 42.859375 26.101562 42.859375 25.773438 L 42.859375 23.035156 L 43.765625 23.035156 L 43.765625 22.433594 L 42.859375 22.433594 L 42.859375 21.230469 L 42.167969 21.230469 L 42.167969 22.433594 L 41.429688 22.433594 L 41.429688 23.035156 L 42.167969 23.035156 L 42.167969 25.921875 C 42.167969 26.578125 42.5 26.953125 43.15625 26.953125 Z M 43.15625 26.949219 " fill-opacity="1" fill-rule="evenodd"/></svg>