<svg xmlns="http://www.w3.org/2000/svg" xmlns:xlink="http://www.w3.org/1999/xlink" width="64" zoomAndPan="magnify" viewBox="0 0 48 48" height="64" preserveAspectRatio="xMidYMid meet" version="1.0"><defs><clipPath id="ecadad2c00"><path d="M 3 13.941406 L 44.824219 13.941406 L 44.824219 33.042969 L 3 33.042969 Z M 3 13.941406 " clip-rule="nonzero"/></clipPath></defs><g clip-path="url(#ecadad2c00)"><path fill="#007acc" d="M 4.6875 32.9375 L 4.355469 32.9375 L 3.03125 29.289062 L 3.40625 29.289062 L 4.441406 32.207031 L 4.488281 32.371094 C 4.488281 32.425781 4.511719 32.484375 4.527344 32.542969 C 4.539062 32.492188 4.550781 32.4375 4.566406 32.386719 C 4.566406 32.328125 4.597656 32.265625 4.621094 32.199219 L 5.695312 29.277344 L 6.0625 29.277344 Z M 6.722656 29.664062 C 6.660156 29.664062 6.609375 29.640625 6.5625 29.597656 C 6.519531 29.550781 6.5 29.492188 6.503906 29.425781 C 6.503906 29.359375 6.527344 29.304688 6.574219 29.261719 C 6.617188 29.21875 6.671875 29.195312 6.734375 29.195312 C 6.765625 29.191406 6.796875 29.191406 6.828125 29.195312 C 6.855469 29.207031 6.882812 29.222656 6.90625 29.242188 C 6.925781 29.265625 6.941406 29.289062 6.953125 29.316406 C 6.96875 29.34375 6.972656 29.375 6.972656 29.410156 C 6.980469 29.441406 6.980469 29.472656 6.972656 29.503906 C 6.960938 29.53125 6.945312 29.554688 6.921875 29.574219 C 6.902344 29.597656 6.875 29.617188 6.84375 29.625 C 6.808594 29.648438 6.769531 29.664062 6.722656 29.664062 Z M 6.5625 32.9375 L 6.5625 30.324219 L 6.910156 30.324219 L 6.910156 32.9375 Z M 7.582031 32.46875 C 7.683594 32.546875 7.796875 32.609375 7.921875 32.648438 C 7.980469 32.671875 8.042969 32.691406 8.105469 32.699219 C 8.164062 32.703125 8.222656 32.703125 8.28125 32.699219 C 8.667969 32.699219 8.863281 32.550781 8.863281 32.261719 C 8.863281 32.199219 8.847656 32.144531 8.820312 32.089844 C 8.789062 32.039062 8.75 31.992188 8.703125 31.957031 C 8.648438 31.917969 8.589844 31.882812 8.527344 31.859375 C 8.449219 31.816406 8.371094 31.78125 8.289062 31.75 C 8.179688 31.707031 8.078125 31.65625 7.976562 31.597656 C 7.898438 31.554688 7.828125 31.496094 7.761719 31.433594 C 7.707031 31.375 7.667969 31.308594 7.636719 31.234375 C 7.609375 31.152344 7.597656 31.070312 7.597656 30.988281 C 7.59375 30.875 7.621094 30.773438 7.671875 30.679688 C 7.726562 30.585938 7.792969 30.507812 7.875 30.445312 C 7.964844 30.382812 8.0625 30.335938 8.167969 30.304688 C 8.28125 30.273438 8.398438 30.257812 8.519531 30.257812 C 8.726562 30.25 8.921875 30.292969 9.109375 30.382812 L 9.109375 30.726562 C 8.917969 30.601562 8.707031 30.535156 8.476562 30.535156 C 8.402344 30.535156 8.328125 30.546875 8.253906 30.570312 C 8.191406 30.585938 8.132812 30.613281 8.082031 30.652344 C 8.039062 30.691406 8.003906 30.738281 7.972656 30.789062 C 7.945312 30.84375 7.933594 30.902344 7.933594 30.960938 C 7.933594 31.019531 7.941406 31.078125 7.964844 31.132812 C 7.988281 31.183594 8.019531 31.226562 8.058594 31.261719 C 8.109375 31.308594 8.167969 31.34375 8.226562 31.375 C 8.296875 31.417969 8.382812 31.449219 8.476562 31.488281 L 8.800781 31.640625 C 8.886719 31.683594 8.960938 31.738281 9.027344 31.804688 C 9.085938 31.859375 9.132812 31.925781 9.160156 32 C 9.191406 32.082031 9.207031 32.164062 9.207031 32.25 C 9.207031 32.363281 9.183594 32.464844 9.132812 32.5625 C 9.082031 32.65625 9.015625 32.734375 8.929688 32.800781 C 8.839844 32.863281 8.738281 32.910156 8.632812 32.941406 C 8.507812 32.976562 8.378906 32.992188 8.25 32.988281 C 8.015625 32.996094 7.792969 32.941406 7.589844 32.824219 Z M 11.542969 32.9375 L 11.542969 32.492188 C 11.382812 32.835938 11.113281 33.003906 10.734375 33 C 10.113281 33 9.804688 32.617188 9.804688 31.863281 L 9.804688 30.320312 L 10.128906 30.320312 L 10.128906 31.792969 C 10.105469 32.042969 10.164062 32.273438 10.292969 32.488281 C 10.421875 32.652344 10.59375 32.730469 10.800781 32.714844 C 10.910156 32.714844 11.011719 32.691406 11.109375 32.648438 C 11.203125 32.605469 11.28125 32.542969 11.347656 32.460938 C 11.417969 32.378906 11.46875 32.28125 11.503906 32.179688 C 11.542969 32.058594 11.558594 31.9375 11.558594 31.8125 L 11.558594 30.324219 L 11.882812 30.324219 L 11.882812 32.9375 Z M 14.210938 32.9375 L 14.210938 32.476562 C 14.132812 32.644531 14.015625 32.777344 13.863281 32.878906 C 13.710938 32.972656 13.542969 33.019531 13.363281 33.019531 C 13.25 33.019531 13.136719 33 13.023438 32.964844 C 12.929688 32.933594 12.84375 32.878906 12.769531 32.8125 C 12.699219 32.746094 12.640625 32.667969 12.605469 32.578125 C 12.566406 32.480469 12.546875 32.378906 12.546875 32.273438 C 12.539062 32.050781 12.609375 31.863281 12.765625 31.707031 C 12.957031 31.546875 13.179688 31.453125 13.429688 31.433594 L 14.238281 31.320312 C 14.238281 30.816406 14.042969 30.566406 13.65625 30.566406 C 13.332031 30.570312 13.050781 30.679688 12.816406 30.902344 L 12.816406 30.542969 C 12.871094 30.503906 12.933594 30.46875 12.996094 30.4375 C 13.066406 30.40625 13.140625 30.378906 13.214844 30.359375 C 13.292969 30.335938 13.371094 30.316406 13.449219 30.300781 C 13.527344 30.296875 13.605469 30.296875 13.683594 30.300781 C 13.941406 30.28125 14.160156 30.363281 14.34375 30.542969 C 14.511719 30.757812 14.585938 31 14.566406 31.273438 L 14.566406 32.976562 Z M 13.539062 31.664062 C 13.4375 31.679688 13.335938 31.699219 13.238281 31.730469 C 13.164062 31.75 13.097656 31.785156 13.035156 31.828125 C 12.980469 31.875 12.941406 31.929688 12.917969 31.992188 C 12.886719 32.066406 12.871094 32.144531 12.875 32.226562 C 12.875 32.292969 12.886719 32.359375 12.910156 32.421875 C 12.9375 32.480469 12.972656 32.535156 13.019531 32.578125 C 13.070312 32.625 13.125 32.65625 13.191406 32.675781 C 13.265625 32.703125 13.339844 32.714844 13.417969 32.714844 C 13.527344 32.714844 13.636719 32.691406 13.738281 32.644531 C 13.832031 32.601562 13.914062 32.539062 13.988281 32.460938 C 14.058594 32.378906 14.117188 32.285156 14.152344 32.183594 C 14.191406 32.066406 14.210938 31.949219 14.210938 31.824219 L 14.210938 31.570312 Z M 15.316406 32.9375 L 15.316406 29.066406 L 15.640625 29.066406 L 15.640625 32.9375 Z M 17.824219 32.402344 C 17.886719 32.449219 17.953125 32.488281 18.023438 32.523438 C 18.097656 32.558594 18.171875 32.589844 18.25 32.617188 C 18.332031 32.640625 18.414062 32.65625 18.484375 32.671875 C 18.558594 32.679688 18.632812 32.679688 18.707031 32.671875 C 18.933594 32.691406 19.140625 32.636719 19.332031 32.515625 C 19.476562 32.394531 19.542969 32.242188 19.53125 32.054688 C 19.535156 31.964844 19.519531 31.878906 19.488281 31.796875 C 19.449219 31.71875 19.398438 31.652344 19.335938 31.59375 C 19.257812 31.523438 19.171875 31.460938 19.078125 31.410156 L 18.714844 31.199219 L 18.3125 30.953125 C 18.214844 30.886719 18.121094 30.808594 18.042969 30.722656 C 17.972656 30.644531 17.921875 30.558594 17.886719 30.464844 C 17.851562 30.363281 17.835938 30.257812 17.835938 30.152344 C 17.832031 30.007812 17.863281 29.871094 17.933594 29.746094 C 17.992188 29.625 18.078125 29.527344 18.1875 29.445312 C 18.300781 29.359375 18.421875 29.296875 18.558594 29.253906 C 18.714844 29.214844 18.878906 29.203125 19.039062 29.214844 C 19.285156 29.207031 19.527344 29.246094 19.757812 29.332031 L 19.757812 29.707031 C 19.523438 29.578125 19.269531 29.515625 19 29.523438 C 18.894531 29.519531 18.796875 29.535156 18.695312 29.5625 C 18.605469 29.585938 18.519531 29.625 18.441406 29.675781 C 18.371094 29.726562 18.316406 29.792969 18.273438 29.867188 C 18.230469 29.949219 18.210938 30.039062 18.210938 30.128906 C 18.207031 30.214844 18.222656 30.296875 18.25 30.378906 C 18.28125 30.453125 18.328125 30.519531 18.390625 30.574219 C 18.460938 30.644531 18.542969 30.703125 18.632812 30.753906 L 18.996094 30.957031 C 19.132812 31.03125 19.269531 31.109375 19.398438 31.199219 C 19.503906 31.265625 19.597656 31.347656 19.683594 31.441406 C 19.757812 31.519531 19.8125 31.609375 19.851562 31.707031 C 19.890625 31.808594 19.910156 31.914062 19.910156 32.019531 C 19.910156 32.164062 19.878906 32.296875 19.820312 32.425781 C 19.761719 32.546875 19.675781 32.648438 19.570312 32.726562 C 19.453125 32.8125 19.328125 32.871094 19.1875 32.910156 C 19.03125 32.949219 18.867188 32.972656 18.703125 32.96875 C 18.636719 32.976562 18.566406 32.976562 18.496094 32.96875 C 18.417969 32.960938 18.335938 32.949219 18.253906 32.929688 C 18.175781 32.914062 18.101562 32.894531 18.023438 32.867188 C 17.960938 32.847656 17.902344 32.820312 17.84375 32.789062 Z M 21.542969 32.90625 C 21.425781 32.960938 21.304688 32.992188 21.171875 32.988281 C 20.753906 32.988281 20.542969 32.746094 20.542969 32.261719 L 20.542969 30.609375 L 20.085938 30.609375 L 20.085938 30.324219 L 20.542969 30.324219 L 20.542969 29.667969 L 20.867188 29.558594 L 20.867188 30.328125 L 21.539062 30.328125 L 21.539062 30.613281 L 20.867188 30.613281 L 20.867188 32.210938 C 20.851562 32.355469 20.878906 32.492188 20.953125 32.617188 C 21.027344 32.707031 21.125 32.746094 21.242188 32.734375 C 21.351562 32.734375 21.449219 32.703125 21.539062 32.640625 Z M 23.777344 32.9375 L 23.777344 32.492188 C 23.617188 32.835938 23.347656 33.007812 22.96875 33 C 22.351562 33 22.039062 32.617188 22.039062 31.863281 L 22.039062 30.320312 L 22.363281 30.320312 L 22.363281 31.792969 C 22.34375 32.042969 22.398438 32.273438 22.527344 32.488281 C 22.65625 32.652344 22.828125 32.726562 23.035156 32.714844 C 23.144531 32.714844 23.246094 32.691406 23.34375 32.648438 C 23.4375 32.605469 23.515625 32.542969 23.582031 32.460938 C 23.65625 32.378906 23.707031 32.285156 23.742188 32.179688 C 23.777344 32.058594 23.796875 31.9375 23.796875 31.8125 L 23.796875 30.324219 L 24.121094 30.324219 L 24.121094 32.9375 Z M 26.769531 32.9375 L 26.769531 32.476562 C 26.679688 32.640625 26.558594 32.765625 26.394531 32.855469 C 26.226562 32.953125 26.042969 33 25.851562 32.992188 C 25.695312 32.996094 25.550781 32.964844 25.410156 32.902344 C 25.273438 32.84375 25.160156 32.757812 25.066406 32.640625 C 24.964844 32.519531 24.894531 32.386719 24.847656 32.234375 C 24.792969 32.058594 24.765625 31.875 24.765625 31.6875 C 24.765625 31.492188 24.792969 31.300781 24.851562 31.113281 C 24.902344 30.9375 24.988281 30.777344 25.101562 30.636719 C 25.207031 30.511719 25.332031 30.414062 25.476562 30.347656 C 25.632812 30.277344 25.796875 30.242188 25.96875 30.246094 C 26.332031 30.21875 26.601562 30.371094 26.777344 30.695312 L 26.777344 29.070312 L 27.097656 29.070312 L 27.097656 32.941406 Z M 26.769531 31.355469 C 26.769531 31.25 26.753906 31.144531 26.71875 31.042969 C 26.679688 30.945312 26.625 30.863281 26.554688 30.789062 C 26.480469 30.710938 26.398438 30.652344 26.304688 30.613281 C 26.199219 30.570312 26.09375 30.546875 25.984375 30.546875 C 25.859375 30.546875 25.742188 30.574219 25.628906 30.625 C 25.515625 30.679688 25.425781 30.753906 25.347656 30.847656 C 25.265625 30.953125 25.207031 31.070312 25.167969 31.199219 C 25.121094 31.347656 25.097656 31.503906 25.097656 31.664062 C 25.097656 31.8125 25.117188 31.960938 25.160156 32.105469 C 25.191406 32.226562 25.246094 32.339844 25.324219 32.4375 C 25.476562 32.628906 25.671875 32.722656 25.914062 32.71875 C 26.039062 32.71875 26.160156 32.695312 26.273438 32.644531 C 26.492188 32.546875 26.636719 32.382812 26.710938 32.15625 C 26.753906 32.039062 26.773438 31.921875 26.773438 31.796875 Z M 28.089844 29.664062 C 28.027344 29.664062 27.972656 29.644531 27.925781 29.597656 C 27.878906 29.554688 27.855469 29.496094 27.859375 29.429688 C 27.855469 29.363281 27.878906 29.308594 27.925781 29.265625 C 27.972656 29.21875 28.023438 29.195312 28.089844 29.199219 C 28.117188 29.195312 28.148438 29.195312 28.179688 29.199219 C 28.207031 29.207031 28.234375 29.226562 28.253906 29.246094 C 28.277344 29.269531 28.292969 29.292969 28.308594 29.320312 C 28.328125 29.382812 28.328125 29.445312 28.308594 29.507812 C 28.296875 29.535156 28.277344 29.558594 28.253906 29.578125 C 28.234375 29.601562 28.210938 29.621094 28.183594 29.628906 C 28.152344 29.648438 28.121094 29.660156 28.089844 29.664062 Z M 27.925781 32.9375 L 27.925781 30.324219 L 28.25 30.324219 L 28.25 32.9375 Z M 30.160156 33.003906 C 29.976562 33.003906 29.804688 32.972656 29.636719 32.90625 C 29.480469 32.84375 29.347656 32.75 29.234375 32.628906 C 29.125 32.511719 29.039062 32.375 28.984375 32.222656 C 28.921875 32.042969 28.894531 31.859375 28.898438 31.671875 C 28.894531 31.472656 28.925781 31.277344 28.992188 31.085938 C 29.046875 30.921875 29.136719 30.773438 29.261719 30.644531 C 29.375 30.523438 29.511719 30.429688 29.664062 30.371094 C 29.835938 30.304688 30.015625 30.273438 30.199219 30.277344 C 30.375 30.273438 30.546875 30.304688 30.707031 30.371094 C 30.863281 30.425781 31 30.515625 31.113281 30.636719 C 31.214844 30.761719 31.289062 30.898438 31.335938 31.050781 C 31.449219 31.429688 31.449219 31.804688 31.335938 32.183594 C 31.277344 32.339844 31.195312 32.484375 31.085938 32.613281 C 30.972656 32.738281 30.835938 32.832031 30.679688 32.894531 C 30.515625 32.964844 30.339844 33.003906 30.160156 33.003906 Z M 30.183594 30.546875 C 30.042969 30.546875 29.910156 30.570312 29.777344 30.625 C 29.664062 30.675781 29.566406 30.746094 29.484375 30.839844 C 29.398438 30.941406 29.335938 31.058594 29.292969 31.183594 C 29.246094 31.335938 29.226562 31.492188 29.230469 31.652344 C 29.226562 31.800781 29.246094 31.949219 29.292969 32.09375 C 29.335938 32.21875 29.398438 32.332031 29.484375 32.429688 C 29.5625 32.527344 29.660156 32.597656 29.773438 32.644531 C 29.902344 32.699219 30.039062 32.726562 30.179688 32.722656 C 30.320312 32.726562 30.453125 32.703125 30.582031 32.648438 C 30.695312 32.597656 30.789062 32.527344 30.871094 32.433594 C 30.953125 32.335938 31.011719 32.222656 31.042969 32.097656 C 31.085938 31.945312 31.105469 31.792969 31.105469 31.636719 C 31.125 31.335938 31.046875 31.066406 30.871094 30.824219 C 30.6875 30.613281 30.460938 30.523438 30.183594 30.546875 Z M 36.011719 32.800781 C 35.703125 32.9375 35.382812 33.003906 35.046875 33 C 34.804688 33 34.570312 32.957031 34.347656 32.863281 C 34.140625 32.777344 33.960938 32.648438 33.808594 32.484375 C 33.652344 32.316406 33.539062 32.125 33.464844 31.90625 C 33.382812 31.671875 33.339844 31.425781 33.34375 31.175781 C 33.34375 30.914062 33.386719 30.65625 33.472656 30.40625 C 33.554688 30.171875 33.675781 29.964844 33.839844 29.78125 C 34.003906 29.605469 34.199219 29.472656 34.417969 29.375 C 34.660156 29.273438 34.914062 29.222656 35.179688 29.226562 C 35.464844 29.222656 35.742188 29.269531 36.011719 29.367188 L 36.011719 29.734375 C 35.746094 29.601562 35.46875 29.539062 35.175781 29.539062 C 34.957031 29.535156 34.746094 29.574219 34.542969 29.660156 C 34.363281 29.738281 34.210938 29.851562 34.082031 30 C 33.953125 30.152344 33.859375 30.324219 33.796875 30.515625 C 33.726562 30.726562 33.695312 30.941406 33.695312 31.164062 C 33.695312 31.367188 33.726562 31.566406 33.785156 31.761719 C 33.839844 31.941406 33.929688 32.101562 34.046875 32.246094 C 34.167969 32.390625 34.3125 32.503906 34.484375 32.582031 C 34.675781 32.667969 34.875 32.707031 35.085938 32.703125 C 35.414062 32.707031 35.722656 32.628906 36.011719 32.476562 Z M 37.789062 33.003906 C 37.609375 33.003906 37.4375 32.972656 37.273438 32.90625 C 37.117188 32.84375 36.980469 32.753906 36.867188 32.628906 C 36.757812 32.511719 36.671875 32.375 36.617188 32.222656 C 36.558594 32.042969 36.53125 31.859375 36.53125 31.671875 C 36.53125 31.472656 36.558594 31.277344 36.621094 31.085938 C 36.679688 30.921875 36.773438 30.773438 36.898438 30.644531 C 37.007812 30.523438 37.144531 30.429688 37.300781 30.371094 C 37.472656 30.304688 37.648438 30.273438 37.835938 30.277344 C 38.007812 30.273438 38.175781 30.304688 38.339844 30.371094 C 38.496094 30.425781 38.632812 30.515625 38.742188 30.636719 C 38.855469 30.765625 38.933594 30.90625 38.984375 31.066406 C 39.046875 31.253906 39.074219 31.445312 39.070312 31.640625 C 39.074219 31.832031 39.042969 32.019531 38.980469 32.199219 C 38.929688 32.359375 38.84375 32.503906 38.730469 32.628906 C 38.617188 32.753906 38.484375 32.847656 38.328125 32.910156 C 38.15625 32.980469 37.976562 33.011719 37.789062 33.003906 Z M 37.816406 30.546875 C 37.679688 30.546875 37.542969 30.570312 37.414062 30.625 C 37.300781 30.675781 37.199219 30.746094 37.117188 30.839844 C 37.03125 30.941406 36.96875 31.058594 36.929688 31.183594 C 36.882812 31.335938 36.863281 31.492188 36.863281 31.652344 C 36.863281 31.800781 36.882812 31.949219 36.929688 32.09375 C 36.96875 32.21875 37.03125 32.332031 37.113281 32.429688 C 37.195312 32.527344 37.292969 32.597656 37.410156 32.644531 C 37.667969 32.75 37.925781 32.75 38.183594 32.644531 C 38.292969 32.597656 38.386719 32.523438 38.464844 32.429688 C 38.550781 32.332031 38.609375 32.21875 38.644531 32.09375 C 38.683594 31.941406 38.707031 31.789062 38.703125 31.632812 C 38.726562 31.332031 38.648438 31.0625 38.46875 30.820312 C 38.296875 30.625 38.078125 30.535156 37.816406 30.546875 Z M 41.535156 32.941406 L 41.535156 32.476562 C 41.453125 32.636719 41.328125 32.765625 41.167969 32.855469 C 40.847656 33.03125 40.515625 33.046875 40.179688 32.902344 C 40.042969 32.839844 39.929688 32.753906 39.835938 32.640625 C 39.738281 32.519531 39.664062 32.382812 39.617188 32.234375 C 39.5625 32.058594 39.535156 31.875 39.539062 31.6875 C 39.539062 31.492188 39.566406 31.300781 39.625 31.113281 C 39.675781 30.945312 39.757812 30.796875 39.867188 30.660156 C 39.96875 30.535156 40.09375 30.4375 40.242188 30.371094 C 40.398438 30.300781 40.5625 30.265625 40.730469 30.269531 C 41.101562 30.242188 41.367188 30.390625 41.539062 30.71875 L 41.539062 29.066406 L 41.863281 29.066406 L 41.863281 32.9375 Z M 41.535156 31.359375 C 41.539062 31.25 41.515625 31.140625 41.476562 31.039062 C 41.4375 30.941406 41.386719 30.859375 41.3125 30.785156 C 41.242188 30.710938 41.160156 30.652344 41.0625 30.609375 C 40.960938 30.566406 40.851562 30.542969 40.742188 30.542969 C 40.617188 30.542969 40.496094 30.570312 40.386719 30.621094 C 40.277344 30.675781 40.183594 30.75 40.109375 30.84375 C 40.027344 30.949219 39.964844 31.066406 39.929688 31.191406 C 39.882812 31.347656 39.859375 31.503906 39.863281 31.664062 C 39.863281 31.8125 39.878906 31.960938 39.921875 32.105469 C 39.953125 32.226562 40.011719 32.339844 40.089844 32.4375 C 40.160156 32.527344 40.242188 32.597656 40.34375 32.644531 C 40.449219 32.695312 40.5625 32.71875 40.679688 32.71875 C 40.804688 32.71875 40.921875 32.695312 41.035156 32.644531 C 41.136719 32.597656 41.230469 32.53125 41.304688 32.449219 C 41.382812 32.363281 41.4375 32.265625 41.476562 32.15625 C 41.515625 32.039062 41.539062 31.921875 41.535156 31.796875 Z M 42.855469 31.691406 C 42.851562 31.839844 42.875 31.980469 42.917969 32.121094 C 42.953125 32.242188 43.011719 32.351562 43.09375 32.445312 C 43.167969 32.535156 43.261719 32.605469 43.371094 32.648438 C 43.488281 32.699219 43.613281 32.722656 43.738281 32.722656 C 44.054688 32.71875 44.332031 32.613281 44.570312 32.414062 L 44.570312 32.738281 C 44.300781 32.925781 43.996094 33.015625 43.667969 33.007812 C 43.503906 33.007812 43.34375 32.976562 43.195312 32.914062 C 43.050781 32.855469 42.929688 32.765625 42.832031 32.644531 C 42.722656 32.519531 42.644531 32.375 42.597656 32.214844 C 42.539062 32.027344 42.511719 31.832031 42.515625 31.636719 C 42.515625 31.449219 42.542969 31.269531 42.605469 31.09375 C 42.660156 30.933594 42.742188 30.789062 42.851562 30.660156 C 42.957031 30.539062 43.082031 30.441406 43.226562 30.375 C 43.375 30.304688 43.535156 30.269531 43.699219 30.273438 C 43.851562 30.269531 44 30.296875 44.144531 30.359375 C 44.269531 30.417969 44.378906 30.5 44.46875 30.609375 C 44.5625 30.730469 44.628906 30.867188 44.664062 31.015625 C 44.714844 31.1875 44.738281 31.363281 44.734375 31.542969 L 44.734375 31.703125 Z M 44.398438 31.410156 C 44.410156 31.175781 44.34375 30.964844 44.203125 30.777344 C 44.070312 30.613281 43.898438 30.539062 43.691406 30.546875 C 43.585938 30.546875 43.480469 30.566406 43.382812 30.609375 C 43.289062 30.648438 43.207031 30.707031 43.136719 30.78125 C 43.0625 30.859375 43.003906 30.949219 42.960938 31.046875 C 42.910156 31.164062 42.875 31.28125 42.863281 31.410156 Z M 27.199219 13.929688 L 27.199219 25.335938 L 17.269531 23.855469 L 27.199219 27.210938 L 30.515625 25.832031 L 30.515625 15.3125 Z M 23.722656 15.875 L 20.679688 18.882812 L 18.847656 17.503906 L 18.097656 17.757812 L 19.957031 19.605469 L 18.097656 21.457031 L 18.847656 21.707031 L 20.679688 20.328125 L 23.722656 23.355469 L 25.542969 22.574219 L 25.542969 16.65625 Z M 23.722656 18.023438 L 23.722656 21.1875 L 21.628906 19.605469 Z M 23.722656 18.023438 " fill-opacity="1" fill-rule="nonzero"/></g></svg>