<svg xmlns="http://www.w3.org/2000/svg" xmlns:xlink="http://www.w3.org/1999/xlink" width="64" zoomAndPan="magnify" viewBox="0 0 48 48" height="64" preserveAspectRatio="xMidYMid meet" version="1.0"><defs><clipPath id="388421a676"><path d="M 3.796875 14.328125 L 44.203125 14.328125 L 44.203125 32.695312 L 3.796875 32.695312 Z M 3.796875 14.328125 " clip-rule="nonzero"/></clipPath></defs><g clip-path="url(#388421a676)"><path fill="#ff4a00" d="M 3.960938 28.777344 L 8.125 22.328125 L 4.453125 22.328125 C 4.417969 22.125 4.40625 21.921875 4.410156 21.714844 C 4.40625 21.511719 4.417969 21.304688 4.453125 21.105469 L 10.367188 21.105469 L 10.445312 21.308594 L 6.242188 27.753906 L 10.164062 27.753906 C 10.199219 27.957031 10.214844 28.164062 10.207031 28.367188 C 10.214844 28.558594 10.203125 28.75 10.164062 28.9375 L 4.003906 28.9375 Z M 15.917969 23.796875 C 15.96875 23.304688 15.816406 22.882812 15.46875 22.53125 C 15.0625 22.253906 14.613281 22.128906 14.125 22.164062 C 13.78125 22.171875 13.441406 22.195312 13.101562 22.246094 C 12.796875 22.289062 12.5 22.359375 12.207031 22.449219 C 11.992188 22.070312 11.898438 21.660156 11.921875 21.226562 C 12.292969 21.101562 12.671875 21.019531 13.0625 20.980469 C 13.46875 20.914062 13.875 20.886719 14.289062 20.898438 C 15.148438 20.84375 15.921875 21.078125 16.613281 21.59375 C 17.144531 22.042969 17.429688 22.816406 17.429688 23.835938 L 17.429688 28.773438 L 16.125 29.019531 C 15.609375 29.101562 15.089844 29.140625 14.574219 29.140625 C 14.121094 29.144531 13.671875 29.105469 13.226562 29.019531 C 12.851562 28.945312 12.511719 28.796875 12.207031 28.570312 C 11.921875 28.367188 11.703125 28.109375 11.550781 27.796875 C 11.378906 27.433594 11.296875 27.054688 11.308594 26.652344 C 11.289062 26.242188 11.386719 25.863281 11.59375 25.511719 C 11.761719 25.167969 12.003906 24.898438 12.328125 24.695312 C 12.660156 24.480469 13.011719 24.320312 13.386719 24.203125 C 13.800781 24.085938 14.226562 24.03125 14.652344 24.042969 C 14.925781 24.03125 15.199219 24.042969 15.46875 24.082031 C 15.671875 24.082031 15.835938 24.121094 16 24.121094 L 16 23.796875 Z M 15.917969 25.265625 C 15.726562 25.257812 15.535156 25.230469 15.347656 25.1875 C 15.101562 25.1875 14.898438 25.148438 14.734375 25.148438 C 14.207031 25.117188 13.71875 25.238281 13.265625 25.515625 C 12.917969 25.785156 12.753906 26.136719 12.777344 26.574219 C 12.753906 26.804688 12.792969 27.023438 12.894531 27.230469 C 13 27.4375 13.148438 27.601562 13.347656 27.71875 C 13.527344 27.820312 13.714844 27.871094 13.917969 27.882812 C 14.109375 27.914062 14.300781 27.929688 14.492188 27.921875 C 14.738281 27.929688 14.980469 27.914062 15.226562 27.882812 L 15.878906 27.757812 L 15.878906 25.269531 Z M 19.101562 21.105469 C 19.222656 21.105469 19.304688 21.0625 19.429688 21.0625 L 20.082031 21.0625 C 20.203125 21.0625 20.285156 21.105469 20.40625 21.105469 C 20.429688 21.171875 20.441406 21.238281 20.449219 21.308594 C 20.449219 21.429688 20.488281 21.511719 20.488281 21.632812 C 20.488281 21.757812 20.53125 21.878906 20.53125 22 C 20.527344 22.070312 20.542969 22.140625 20.570312 22.207031 L 20.9375 21.714844 C 21.097656 21.558594 21.273438 21.421875 21.46875 21.308594 C 21.941406 21.042969 22.476562 20.90625 23.019531 20.898438 C 23.449219 20.894531 23.882812 20.976562 24.285156 21.144531 C 24.683594 21.304688 25.023438 21.550781 25.300781 21.878906 C 25.601562 22.242188 25.816406 22.652344 25.953125 23.105469 C 26.125 23.675781 26.207031 24.261719 26.199219 24.859375 C 26.265625 26.070312 25.898438 27.132812 25.097656 28.042969 C 24.363281 28.816406 23.335938 29.183594 21.996094 29.183594 C 21.761719 29.191406 21.53125 29.175781 21.300781 29.144531 C 21.054688 29.101562 20.851562 29.0625 20.6875 29.019531 L 20.6875 32.652344 C 20.566406 32.652344 20.445312 32.695312 20.28125 32.695312 L 19.546875 32.695312 C 19.425781 32.695312 19.300781 32.652344 19.179688 32.652344 L 19.179688 21.105469 Z M 20.613281 27.714844 C 20.8125 27.789062 21.015625 27.84375 21.222656 27.878906 C 21.496094 27.914062 21.765625 27.929688 22.039062 27.917969 C 22.390625 27.929688 22.734375 27.871094 23.054688 27.753906 C 23.363281 27.652344 23.621094 27.472656 23.832031 27.226562 C 24.066406 26.945312 24.242188 26.632812 24.363281 26.285156 C 24.503906 25.847656 24.570312 25.398438 24.566406 24.941406 C 24.59375 24.246094 24.441406 23.59375 24.117188 22.980469 C 23.800781 22.484375 23.234375 22.199219 22.648438 22.246094 C 22.394531 22.246094 22.152344 22.289062 21.914062 22.367188 C 21.675781 22.457031 21.472656 22.59375 21.300781 22.777344 C 21.101562 22.976562 20.953125 23.207031 20.851562 23.46875 C 20.726562 23.796875 20.671875 24.140625 20.6875 24.488281 L 20.6875 27.710938 Z M 28.039062 22.28125 L 27.023438 22.28125 C 26.984375 22.191406 26.972656 22.097656 26.984375 21.996094 L 26.984375 21.34375 C 26.984375 21.222656 27.023438 21.140625 27.023438 21.058594 L 29.511719 21.058594 L 29.511719 28.976562 C 29.390625 28.976562 29.265625 29.015625 29.144531 29.015625 L 28.410156 29.015625 C 28.289062 29.015625 28.164062 28.976562 28.042969 28.976562 Z M 32.8125 25.425781 C 32.855469 26.28125 33.058594 26.933594 33.464844 27.300781 C 34.007812 27.761719 34.632812 27.96875 35.34375 27.914062 C 36.054688 27.917969 36.757812 27.792969 37.425781 27.546875 C 37.523438 27.726562 37.59375 27.917969 37.628906 28.117188 C 37.675781 28.332031 37.703125 28.550781 37.710938 28.769531 C 37.359375 28.929688 36.992188 29.039062 36.609375 29.097656 C 36.164062 29.183594 35.710938 29.222656 35.261719 29.21875 C 34.632812 29.246094 34.019531 29.148438 33.425781 28.933594 C 32.949219 28.710938 32.527344 28.414062 32.160156 28.035156 C 31.816406 27.65625 31.574219 27.222656 31.425781 26.730469 C 31.257812 26.199219 31.175781 25.65625 31.179688 25.097656 C 31.183594 24.546875 31.253906 24.003906 31.386719 23.464844 C 31.527344 22.984375 31.757812 22.546875 32.078125 22.160156 C 32.402344 21.796875 32.789062 21.496094 33.222656 21.261719 C 33.765625 21.003906 34.335938 20.882812 34.9375 20.894531 C 35.402344 20.875 35.851562 20.957031 36.28125 21.144531 C 36.710938 21.328125 37.078125 21.601562 37.382812 21.957031 C 37.679688 22.289062 37.882812 22.667969 37.996094 23.097656 C 38.148438 23.574219 38.21875 24.070312 38.199219 24.566406 L 38.199219 25.015625 C 38.199219 25.179688 38.160156 25.304688 38.160156 25.425781 Z M 36.730469 24.28125 C 36.734375 24.003906 36.691406 23.730469 36.609375 23.464844 C 36.523438 23.222656 36.417969 22.992188 36.28125 22.773438 C 36.128906 22.566406 35.941406 22.402344 35.710938 22.28125 C 35.453125 22.160156 35.179688 22.105469 34.894531 22.121094 C 34.332031 22.089844 33.855469 22.28125 33.46875 22.691406 C 33.097656 23.15625 32.894531 23.6875 32.855469 24.28125 Z M 39.914062 21.101562 C 40.035156 21.101562 40.117188 21.058594 40.242188 21.058594 L 40.894531 21.058594 C 41.015625 21.058594 41.097656 21.101562 41.21875 21.101562 C 41.273438 21.300781 41.300781 21.503906 41.300781 21.710938 C 41.335938 21.929688 41.347656 22.144531 41.34375 22.363281 C 41.554688 21.992188 41.839844 21.695312 42.199219 21.464844 C 42.609375 21.207031 43.058594 21.082031 43.546875 21.097656 L 43.789062 21.097656 C 43.863281 21.089844 43.933594 21.101562 43.996094 21.140625 C 43.996094 21.21875 44.035156 21.34375 44.035156 21.425781 L 44.035156 21.75 C 44.042969 21.875 44.027344 22 43.996094 22.117188 C 43.996094 22.242188 43.953125 22.363281 43.953125 22.484375 C 43.875 22.484375 43.789062 22.445312 43.710938 22.445312 L 43.503906 22.445312 C 43.238281 22.441406 42.980469 22.484375 42.730469 22.566406 C 42.464844 22.648438 42.234375 22.785156 42.035156 22.976562 C 41.804688 23.207031 41.644531 23.480469 41.546875 23.792969 C 41.417969 24.21875 41.363281 24.652344 41.382812 25.097656 L 41.382812 29.019531 C 41.261719 29.019531 41.136719 29.0625 41.015625 29.0625 L 40.28125 29.0625 C 40.160156 29.0625 39.996094 29.019531 39.875 29.019531 L 39.875 21.105469 Z M 30.976562 16.453125 L 29.472656 16.453125 L 30.535156 15.390625 C 30.457031 15.269531 30.371094 15.1875 30.289062 15.0625 C 30.171875 14.980469 30.0625 14.882812 29.960938 14.777344 L 28.898438 15.839844 L 28.898438 14.367188 C 28.765625 14.332031 28.628906 14.316406 28.488281 14.324219 C 28.351562 14.316406 28.214844 14.328125 28.082031 14.367188 L 28.082031 15.875 L 26.980469 14.773438 C 26.851562 14.847656 26.742188 14.941406 26.652344 15.058594 C 26.574219 15.179688 26.449219 15.261719 26.367188 15.386719 L 27.429688 16.445312 L 25.957031 16.445312 L 25.914062 16.855469 C 25.90625 16.992188 25.917969 17.132812 25.957031 17.265625 L 27.464844 17.265625 L 26.363281 18.367188 C 26.523438 18.609375 26.734375 18.820312 26.976562 18.980469 L 28.035156 17.917969 L 28.035156 19.429688 C 28.171875 19.464844 28.304688 19.476562 28.445312 19.46875 C 28.582031 19.480469 28.71875 19.464844 28.851562 19.429688 L 28.851562 17.917969 L 29.914062 18.980469 C 30.042969 18.90625 30.148438 18.8125 30.238281 18.695312 C 30.34375 18.59375 30.441406 18.488281 30.523438 18.367188 L 29.472656 17.308594 L 30.984375 17.308594 C 31.015625 17.175781 31.03125 17.039062 31.023438 16.898438 C 31.03125 16.75 31.019531 16.597656 30.984375 16.449219 Z M 29.101562 16.859375 C 29.097656 17.039062 29.070312 17.21875 29.019531 17.390625 C 28.851562 17.457031 28.667969 17.484375 28.488281 17.46875 C 28.304688 17.464844 28.128906 17.4375 27.957031 17.386719 C 27.890625 17.21875 27.863281 17.035156 27.878906 16.855469 C 27.882812 16.675781 27.910156 16.5 27.960938 16.324219 C 28.128906 16.257812 28.308594 16.230469 28.492188 16.246094 C 28.671875 16.25 28.847656 16.277344 29.023438 16.328125 C 29.070312 16.503906 29.097656 16.679688 29.101562 16.859375 Z M 29.101562 16.859375 " fill-opacity="1" fill-rule="nonzero"/></g></svg>